<?xml version="1.0" encoding="UTF-8" standalone="no"?>
<!-- Created with Inkscape (http://www.inkscape.org/) -->

<svg
   width="50mm"
   height="103.85051mm"
   viewBox="0 0 50 103.85051"
   version="1.1"
   id="svg2882"
   inkscape:version="1.2.2 (b0a8486541, 2022-12-01)"
   sodipodi:docname="Chocked.svg"
   inkscape:export-filename="Git_projects/esp-shooter/target/SVG/Laugh.png"
   inkscape:export-xdpi="96"
   inkscape:export-ydpi="96"
   xmlns:inkscape="http://www.inkscape.org/namespaces/inkscape"
   xmlns:sodipodi="http://sodipodi.sourceforge.net/DTD/sodipodi-0.dtd"
   xmlns="http://www.w3.org/2000/svg"
   xmlns:svg="http://www.w3.org/2000/svg">
  <sodipodi:namedview
     id="namedview2884"
     pagecolor="#ffffff"
     bordercolor="#000000"
     borderopacity="0.25"
     inkscape:showpageshadow="2"
     inkscape:pageopacity="0.0"
     inkscape:pagecheckerboard="0"
     inkscape:deskcolor="#d1d1d1"
     inkscape:document-units="mm"
     showgrid="false"
     inkscape:zoom="0.9523022"
     inkscape:cx="100.80834"
     inkscape:cy="-16.801389"
     inkscape:window-width="1366"
     inkscape:window-height="699"
     inkscape:window-x="0"
     inkscape:window-y="0"
     inkscape:window-maximized="1"
     inkscape:current-layer="g26029" />
  <defs
     id="defs2879" />
  <g
     inkscape:label="Calque 1"
     inkscape:groupmode="layer"
     id="layer1"
     transform="translate(-64.396203,-97.646013)">
    <g
       id="g2145"
       transform="matrix(0.26458333,0,0,0.26458333,-112.30229,87.866749)">
      <path
         id="rect234"
         style="fill:#ffce00;fill-opacity:1;stroke-width:1.27769"
         d="m 739.77918,202.69521 h 45.08972 v 226.77166 c -22.31809,-15.91608 -22.31809,-15.7569 -45.08972,0 z"
         sodipodi:nodetypes="ccccc" />
      <rect
         style="fill:#ffffff;stroke:none;stroke-width:3.77953"
         id="rect1162"
         width="16.705513"
         height="16.705513"
         x="753.97137"
         y="327.1554" />
      <g
         id="g25790"
         transform="matrix(1.9648954,0,0,1.9649407,604.12502,-967.33253)">
		
			
		
		
	<g
   id="g25213"
   transform="matrix(0.99246105,0,0,0.99934292,-127.19708,156.95414)">
			
			
			
			
			
			
			
		<g
   id="g26063"
   transform="matrix(1.0069589,0,0,1.0000016,-1.0561851,-322.0737)">
			
				<circle
   transform="matrix(0.9867,-0.1624,0.1624,0.9867,-114.0947,43.4655)"
   style="fill:#ffce00"
   cx="208.87399"
   cy="719.76202"
   id="ellipse26013"
   r="43.277" />

			<g
   id="g26029"
   style="fill:#000000">
				<g
   id="g26017"
   style="fill:#ffffff">
					<path
   style="fill:#ffffff"
   d="m 209.355,727.248 c -3.298,0 -6.251,1.411 -8.29,3.645 h 16.579 c -2.038,-2.234 -4.993,-3.645 -8.289,-3.645 z"
   id="path26015" />

				</g>

				<g
   id="g26027"
   style="fill:#000000">
					<g
   id="g26021"
   style="fill:#000000">
						<path
   style="fill:#000000"
   d="m 216.069,746.852 c 2.68,-1.995 4.418,-5.142 4.418,-8.692 0,-2.796 -1.08,-5.339 -2.844,-7.268 h -16.579 c -1.763,1.929 -2.844,4.472 -2.844,7.268 0,3.551 1.74,6.697 4.421,8.692 1.927,-1.105 4.231,-1.752 6.713,-1.752 2.481,10e-4 4.786,0.647 6.715,1.752 z"
   id="path26019" />

					</g>

					<g
   id="g26025"
   style="fill:#ff0000">
						<path
   style="fill:#ff0000"
   d="m 216.069,746.852 c -1.929,-1.105 -4.234,-1.752 -6.714,-1.752 -2.482,0 -4.786,0.646 -6.713,1.752 1.867,1.386 4.189,2.221 6.713,2.221 2.525,0 4.845,-0.835 6.714,-2.221 z"
   id="path26023" />

					</g>

				</g>

			</g>

			<g
   id="g26039"
   style="fill:#000000">
				<g
   id="g26033"
   style="fill:#000000">
					<path
   style="fill:#000000"
   d="m 182.734,701.762 c -0.344,0 -0.686,-0.145 -0.927,-0.426 -0.439,-0.513 -0.379,-1.283 0.133,-1.721 2.795,-2.392 6.352,-3.893 10.017,-4.225 0.673,-0.053 1.264,0.435 1.325,1.104 0.061,0.672 -0.434,1.265 -1.105,1.323 -3.164,0.287 -6.236,1.582 -8.649,3.651 -0.231,0.196 -0.513,0.294 -0.794,0.294 z"
   id="path26031" />

				</g>

				<g
   id="g26037"
   style="fill:#000000">
					<path
   style="fill:#000000"
   d="m 235.015,701.762 c -0.281,0 -0.562,-0.098 -0.792,-0.292 -2.416,-2.069 -5.488,-3.364 -8.652,-3.651 -0.67,-0.059 -1.165,-0.651 -1.105,-1.323 0.062,-0.67 0.656,-1.157 1.325,-1.104 3.663,0.331 7.221,1.832 10.018,4.225 0.511,0.438 0.572,1.208 0.132,1.719 -0.241,0.281 -0.582,0.426 -0.926,0.426 z"
   id="path26035" />

				</g>

			</g>

			<g
   id="g26061">
				<g
   id="g26049">
					<g
   id="g26043">
						<path
   style="fill:#ffffff"
   d="m 236.453,713.098 c 0,5.228 -4.092,9.46 -9.14,9.46 -5.048,0 -9.141,-4.231 -9.141,-9.46 0,-5.223 4.093,-9.456 9.141,-9.456 5.048,0 9.14,4.233 9.14,9.456 z"
   id="path26041" />

					</g>

					<g
   id="g26047"
   style="fill:#000000">
						<path
   style="fill:#000000"
   d="m 231.216,713.098 c 0,2.231 -1.747,4.043 -3.903,4.043 -2.156,0 -3.905,-1.812 -3.905,-4.043 0,-2.231 1.749,-4.039 3.905,-4.039 2.156,0 3.903,1.808 3.903,4.039 z"
   id="path26045" />

					</g>

				</g>

				<g
   id="g26059">
					<g
   id="g26053">
						<path
   style="fill:#ffffff"
   d="m 199.576,713.098 c 0,5.228 -4.091,9.46 -9.14,9.46 -5.047,0 -9.141,-4.231 -9.141,-9.46 0,-5.223 4.093,-9.456 9.141,-9.456 5.048,0 9.14,4.233 9.14,9.456 z"
   id="path26051" />

					</g>

					<g
   id="g26057"
   style="fill:#000000">
						<path
   style="fill:#000000"
   d="m 194.339,713.098 c 0,2.231 -1.749,4.043 -3.904,4.043 -2.156,0 -3.905,-1.812 -3.905,-4.043 0,-2.231 1.749,-4.039 3.905,-4.039 2.156,0 3.904,1.808 3.904,4.039 z"
   id="path26055" />

					</g>

				</g>

			</g>

		</g>
</g>
</g>
    </g>
  </g>
</svg>
