<?xml version="1.0" encoding="UTF-8" standalone="no"?>
<!-- Created with Inkscape (http://www.inkscape.org/) -->

<svg
   width="50mm"
   height="103.85051mm"
   viewBox="0 0 50 103.85051"
   version="1.1"
   id="svg2882"
   inkscape:version="1.2.2 (b0a8486541, 2022-12-01)"
   sodipodi:docname="Cry.svg"
   inkscape:export-filename="Git_projects/esp-shooter/target/SVG/Laugh.png"
   inkscape:export-xdpi="96"
   inkscape:export-ydpi="96"
   xmlns:inkscape="http://www.inkscape.org/namespaces/inkscape"
   xmlns:sodipodi="http://sodipodi.sourceforge.net/DTD/sodipodi-0.dtd"
   xmlns="http://www.w3.org/2000/svg"
   xmlns:svg="http://www.w3.org/2000/svg">
  <sodipodi:namedview
     id="namedview2884"
     pagecolor="#ffffff"
     bordercolor="#000000"
     borderopacity="0.25"
     inkscape:showpageshadow="2"
     inkscape:pageopacity="0.0"
     inkscape:pagecheckerboard="0"
     inkscape:deskcolor="#d1d1d1"
     inkscape:document-units="mm"
     showgrid="false"
     inkscape:zoom="0.91964255"
     inkscape:cx="1.087379"
     inkscape:cy="182.67967"
     inkscape:window-width="1366"
     inkscape:window-height="699"
     inkscape:window-x="0"
     inkscape:window-y="0"
     inkscape:window-maximized="1"
     inkscape:current-layer="g2145" />
  <defs
     id="defs2879" />
  <g
     inkscape:label="Calque 1"
     inkscape:groupmode="layer"
     id="layer1"
     transform="translate(-64.396203,-97.646013)">
    <g
       id="g2145"
       transform="matrix(0.26458333,0,0,0.26458333,-112.30229,87.866749)">
      <g
         id="g25257"
         transform="matrix(1.9635815,0,0,1.9635815,-389.6209,-654.97088)">
			<path
   style="fill:#ffce00"
   d="m 629.93302,395.66056 c 0,23.903 -19.375,43.277 -43.278,43.277 -23.901,0 -43.277,-19.374 -43.277,-43.277 0,-23.902 19.376,-43.278 43.277,-43.278 23.903,0 43.278,19.376 43.278,43.278 z"
   id="path25215" />

			<g
   id="g25221"
   transform="translate(121.61102,-3.9574387)"
   style="fill:#000000">
				<g
   id="g25219"
   style="fill:#000000">
					<path
   style="fill:#000000"
   d="m 465.043,425.903 v 0 c -4.761,0 -8.622,-3.861 -8.622,-8.626 v -5.057 c 0,-4.764 3.861,-8.626 8.622,-8.626 v 0 c 4.766,0 8.627,3.862 8.627,8.626 v 5.057 c 0,4.765 -3.861,8.626 -8.627,8.626 z"
   id="path25217" />

				</g>

			</g>

			
			<g
   id="g25255"
   transform="translate(121.61102,-3.9574387)"
   style="fill:#000000">
				<g
   id="g25249"
   style="fill:#000000">
					<path
   style="fill:#000000"
   d="m 493.061,381.686 c -0.072,0 -0.145,-0.005 -0.218,-0.016 -7.034,-1.088 -10.567,-6.793 -10.713,-7.036 -0.405,-0.667 -0.192,-1.534 0.475,-1.938 0.666,-0.406 1.528,-0.193 1.936,0.471 0.052,0.085 3.053,4.834 8.732,5.712 0.771,0.119 1.3,0.841 1.18,1.609 -0.106,0.701 -0.707,1.198 -1.392,1.198 z"
   id="path25247" />

				</g>

				<g
   id="g25253"
   style="fill:#000000">
					<path
   style="fill:#000000"
   d="m 437.026,381.686 c -0.684,0 -1.285,-0.498 -1.393,-1.196 -0.117,-0.768 0.409,-1.491 1.179,-1.609 5.708,-0.881 8.708,-5.665 8.739,-5.712 0.406,-0.662 1.273,-0.873 1.938,-0.467 0.663,0.406 0.876,1.269 0.474,1.934 -0.149,0.243 -3.683,5.947 -10.718,7.036 -0.073,0.01 -0.146,0.014 -0.219,0.014 z"
   id="path25251" />

				</g>

			</g>

		<g
   id="g25245"
   transform="translate(121.61102,-3.9574387)"
   style="stroke:none;stroke-opacity:1;fill:#0078bf;fill-opacity:1">
				<g
   id="g25231"
   style="stroke:none;stroke-opacity:1;fill:#0078bf;fill-opacity:1">
					<g
   id="g25225"
   style="stroke:none;stroke-opacity:1;fill:#0078bf;fill-opacity:1">
						<path
   style="fill:#0078bf;stroke:none;stroke-opacity:1;fill-opacity:1"
   d="m 488.978,390.085 -5.719,-1.999 v 49.609 c 4.205,-1.626 8.063,-3.943 11.436,-6.817 v -42.792 z"
   id="path25223" />

					</g>

					<g
   id="g25229"
   style="stroke:none;stroke-opacity:1;fill:#0078bf;fill-opacity:1">
						<path
   style="fill:#0078bf;stroke:none;stroke-opacity:1;fill-opacity:1"
   d="m 441.111,390.085 -5.717,-1.999 v 42.792 c 3.375,2.874 7.23,5.191 11.434,6.817 v -49.609 z"
   id="path25227" />

					</g>

				</g>

				<g
   id="g25237"
   style="stroke:none;stroke-opacity:1;fill:#0078bf;fill-opacity:1">
					<g
   id="g25235"
   style="stroke:none;stroke-opacity:1;fill:#0078bf;fill-opacity:1">
						<path
   style="fill:#0078bf;stroke:none;stroke-opacity:1;fill-opacity:1"
   d="m 436.438,387.192 c -0.449,-0.278 -1.043,0.037 -1.043,0.567 0,0.003 0,0.009 0,0.013 0,3.157 2.561,5.716 5.717,5.716 3.158,0 5.717,-2.559 5.717,-5.716 0,-0.004 0,-0.01 0,-0.013 0,-0.53 -0.592,-0.845 -1.04,-0.567 -1.358,0.84 -2.96,1.327 -4.677,1.327 -1.715,0 -3.316,-0.487 -4.674,-1.327 z"
   id="path25233" />

					</g>

				</g>

				<g
   id="g25243"
   style="stroke:none;stroke-opacity:1;fill:#0078bf;fill-opacity:1">
					
				<g
   id="g25241"
   style="stroke:none;stroke-opacity:1;fill:#0078bf;fill-opacity:1">
						<path
   style="fill:#0078bf;stroke:none;stroke-opacity:1;fill-opacity:1"
   d="m 484.301,387.192 c -0.448,-0.278 -1.038,0.037 -1.041,0.567 0,0.003 0,0.009 0,0.013 0,3.157 2.559,5.716 5.719,5.716 3.16,0 5.718,-2.559 5.718,-5.716 0,-0.004 0,-0.01 0,-0.013 -0.004,-0.53 -0.591,-0.845 -1.041,-0.567 -1.359,0.84 -2.96,1.327 -4.677,1.327 -1.717,0 -3.319,-0.487 -4.678,-1.327 z"
   id="path25239" />

					</g>
</g>

			</g>
</g>
      <path
         id="rect234"
         style="fill:#ffce00;fill-opacity:1;stroke-width:1.27769"
         d="m 739.77918,202.69521 h 45.08972 v 226.77166 c -22.31809,-15.91608 -22.31809,-15.7569 -45.08972,0 z"
         sodipodi:nodetypes="ccccc" />
      <rect
         style="fill:#ffffff;stroke:none;stroke-width:3.77953"
         id="rect1162"
         width="16.705513"
         height="16.705513"
         x="753.97137"
         y="327.1554" />
    </g>
  </g>
</svg>
