<?xml version="1.0" encoding="UTF-8" standalone="no"?>
<!-- Created with Inkscape (http://www.inkscape.org/) -->

<svg
   width="50mm"
   height="103.85051mm"
   viewBox="0 0 50 103.85051"
   version="1.1"
   id="svg2882"
   inkscape:version="1.2.2 (b0a8486541, 2022-12-01)"
   sodipodi:docname="Devil.svg"
   inkscape:export-filename="Git_projects/esp-shooter/target/SVG/Laugh.png"
   inkscape:export-xdpi="96"
   inkscape:export-ydpi="96"
   xmlns:inkscape="http://www.inkscape.org/namespaces/inkscape"
   xmlns:sodipodi="http://sodipodi.sourceforge.net/DTD/sodipodi-0.dtd"
   xmlns="http://www.w3.org/2000/svg"
   xmlns:svg="http://www.w3.org/2000/svg">
  <sodipodi:namedview
     id="namedview2884"
     pagecolor="#ffffff"
     bordercolor="#000000"
     borderopacity="0.25"
     inkscape:showpageshadow="2"
     inkscape:pageopacity="0.0"
     inkscape:pagecheckerboard="0"
     inkscape:deskcolor="#d1d1d1"
     inkscape:document-units="mm"
     showgrid="false"
     inkscape:zoom="0.57256713"
     inkscape:cx="169.41245"
     inkscape:cy="289.92234"
     inkscape:window-width="1366"
     inkscape:window-height="699"
     inkscape:window-x="0"
     inkscape:window-y="0"
     inkscape:window-maximized="1"
     inkscape:current-layer="g2145"
     showguides="false">
    <sodipodi:guide
       position="28.613446,105.27456"
       orientation="0,-1"
       id="guide35170"
       inkscape:locked="false" />
  </sodipodi:namedview>
  <defs
     id="defs2879" />
  <g
     inkscape:label="Calque 1"
     inkscape:groupmode="layer"
     id="layer1"
     transform="translate(-64.396203,-97.646013)">
    <g
       id="g2145"
       transform="matrix(0.26458333,0,0,0.26458333,-112.30229,87.866749)">
      <path
         id="rect234"
         style="fill:#800080;fill-opacity:1;stroke-width:1.27769"
         d="m 739.77918,202.69521 h 45.08972 v 226.77166 c -22.31809,-15.91608 -22.31809,-15.7569 -45.08972,0 z"
         sodipodi:nodetypes="ccccc" />
      <rect
         style="fill:#ffffff;stroke:none;stroke-width:3.77953"
         id="rect1162"
         width="16.705513"
         height="16.705513"
         x="753.97137"
         y="327.1554" />
      <g
         id="g25790"
         transform="matrix(1.9648954,0,0,1.9649407,604.12503,-964.01283)">
		
			
		
		
	<g
   id="g25213"
   transform="matrix(0.99246105,0,0,0.99934292,-127.19708,156.95414)">
			
			
			
			
			
			
			
		<g
   id="g26063"
   transform="matrix(1.0069589,0,0,1.0000016,-1.0561851,-322.0737)">
			
				
			<g
   id="g26029"
   style="fill:#000000">
				
				
			<path
   d="m 208.79686,674.76704 a 42.165978,43.229766 0 0 0 -26.38389,9.46579 c -6.8387,-2.74514 -12.62205,-5.86743 -16.21026,-9.08246 l -0.56084,3.67256 c -0.20505,1.67552 0.62115,9.36067 6.97137,17.00255 a 41.924754,42.982456 0 0 0 -6.0306,22.22079 42.214223,43.27923 0 0 0 84.42844,0 c 0,-7.97574 -2.17102,-15.41359 -5.84365,-21.83128 6.09693,-7.53058 7.17641,-14.77676 6.9774,-16.42756 l -0.56687,-3.66637 c -3.49172,3.12848 -9.03987,5.99727 -15.64338,8.69295 -0.0362,-0.0309 -0.1568,0.0309 -0.18695,0 a 41.761926,42.815523 0 0 0 -26.95077,-10.04697 z m -12.0612,24.73099 c 3.36507,0 6.21755,2.92444 6.21755,6.37441 v 5.99109 c 0,3.44997 -2.85248,6.18274 -6.21755,6.18274 -3.36508,0 -6.03061,-2.73277 -6.03061,-6.18274 v -5.99109 c 0,-3.44997 2.66553,-6.37441 6.03061,-6.37441 z m 24.12241,0 c 3.36508,0 6.0306,2.92444 6.0306,6.37441 v 5.99109 c 0,3.44997 -2.66552,6.18274 -6.0306,6.18274 -3.36508,0 -6.0306,-2.73277 -6.0306,-6.18274 v -5.99109 c 0,-3.44997 2.66552,-6.37441 6.0306,-6.37441 z m 12.06121,30.77772 c -0.18092,2.12686 -5.57831,18.56678 -24.12242,18.61006 -16.81935,0.0371 -24.12241,-15.82165 -24.12241,-18.4555 z"
   fill="#474747"
   id="path34292"
   style="fill:#800080;stroke-width:6.10622" />
</g>

			
			
		</g>
</g>
</g>
    </g>
  </g>
</svg>
