<?xml version="1.0" encoding="UTF-8" standalone="no"?>
<!-- Created with Inkscape (http://www.inkscape.org/) -->

<svg
   width="50mm"
   height="103.85051mm"
   viewBox="0 0 50 103.85051"
   version="1.1"
   id="svg2882"
   inkscape:version="1.2.2 (b0a8486541, 2022-12-01)"
   sodipodi:docname="Kiss.svg"
   inkscape:export-filename="Git_projects/esp-shooter/target/SVG/Laugh.png"
   inkscape:export-xdpi="96"
   inkscape:export-ydpi="96"
   xmlns:inkscape="http://www.inkscape.org/namespaces/inkscape"
   xmlns:sodipodi="http://sodipodi.sourceforge.net/DTD/sodipodi-0.dtd"
   xmlns="http://www.w3.org/2000/svg"
   xmlns:svg="http://www.w3.org/2000/svg">
  <sodipodi:namedview
     id="namedview2884"
     pagecolor="#ffffff"
     bordercolor="#000000"
     borderopacity="0.25"
     inkscape:showpageshadow="2"
     inkscape:pageopacity="0.0"
     inkscape:pagecheckerboard="0"
     inkscape:deskcolor="#d1d1d1"
     inkscape:document-units="mm"
     showgrid="false"
     inkscape:zoom="2.2950872"
     inkscape:cx="53.157022"
     inkscape:cy="100.64977"
     inkscape:window-width="1366"
     inkscape:window-height="699"
     inkscape:window-x="0"
     inkscape:window-y="0"
     inkscape:window-maximized="1"
     inkscape:current-layer="g25213" />
  <defs
     id="defs2879" />
  <g
     inkscape:label="Calque 1"
     inkscape:groupmode="layer"
     id="layer1"
     transform="translate(-64.396203,-97.646013)">
    <g
       id="g2145"
       transform="matrix(0.26458333,0,0,0.26458333,-112.30229,87.866749)">
      <path
         id="rect234"
         style="fill:#ffce00;fill-opacity:1;stroke-width:1.27769"
         d="m 739.77918,202.69521 h 45.08972 v 226.77166 c -22.31809,-15.91608 -22.31809,-15.7569 -45.08972,0 z"
         sodipodi:nodetypes="ccccc" />
      <rect
         style="fill:#ffffff;stroke:none;stroke-width:3.77953"
         id="rect1162"
         width="16.705513"
         height="16.705513"
         x="753.97137"
         y="327.1554" />
      <g
         id="g25790"
         transform="matrix(1.9648954,0,0,1.9649407,604.12502,-967.33253)">
		
			
		
		
	<g
   id="g25213"
   transform="matrix(0.99246105,0,0,0.99934292,-127.19708,156.95414)">
			<path
   style="fill:#ffce00"
   d="m 252.266,397.663 c 0,23.903 -19.375,43.274 -43.277,43.274 -23.903,0 -43.278,-19.371 -43.278,-43.274 0,-23.904 19.375,-43.278 43.278,-43.278 23.902,-10e-4 43.277,19.374 43.277,43.278 z"
   id="path25177" />

			<g
   id="g25187"
   style="fill:#000000">
				<g
   id="g25181"
   style="fill:#000000">
					<path
   style="fill:#000000"
   d="m 208.298,417.603 c -0.638,0 -1.203,-0.457 -1.319,-1.107 -0.13,-0.729 0.356,-1.427 1.085,-1.555 1.485,-0.266 4.053,-1.526 4.54,-2.824 0.106,-0.282 0.151,-0.649 -0.32,-1.235 -0.939,-1.173 -3.452,-0.027 -4.815,0.972 -0.598,0.434 -1.437,0.308 -1.874,-0.292 -0.438,-0.599 -0.307,-1.438 0.292,-1.876 2.785,-2.035 6.492,-2.975 8.491,-0.483 1.231,1.534 1.082,2.944 0.738,3.858 -1.018,2.712 -4.874,4.218 -6.581,4.522 -0.079,0.014 -0.159,0.02 -0.237,0.02 z"
   id="path25179" />

				</g>

				<g
   id="g25185"
   style="fill:#000000">
					<path
   style="fill:#000000"
   d="m 211.112,424.815 c -1.712,0 -3.62,-0.808 -5.224,-1.978 -0.598,-0.438 -0.73,-1.277 -0.293,-1.875 0.438,-0.599 1.277,-0.73 1.875,-0.294 1.366,0.998 3.88,2.141 4.814,0.971 0.472,-0.587 0.426,-0.954 0.32,-1.236 -0.487,-1.299 -3.055,-2.557 -4.54,-2.82 -0.73,-0.13 -1.216,-0.827 -1.086,-1.557 0.128,-0.729 0.821,-1.219 1.555,-1.085 1.708,0.302 5.564,1.805 6.583,4.519 0.343,0.915 0.493,2.323 -0.739,3.859 -0.847,1.056 -2.003,1.496 -3.265,1.496 z"
   id="path25183" />

				</g>

			</g>

			<g
   id="g25193"
   style="fill:#000000">
				<g
   id="g25191"
   style="fill:#000000">
					<path
   style="fill:#000000"
   d="m 220.865,399.778 c -0.542,0 -1.085,-0.205 -1.498,-0.62 -0.825,-0.828 -0.824,-2.167 0.002,-2.993 2.604,-2.603 8.207,-4.749 12.961,0 0.828,0.826 0.828,2.165 0.002,2.991 -0.825,0.828 -2.166,0.828 -2.992,0.003 -3.394,-3.387 -6.622,-0.356 -6.98,0 -0.413,0.414 -0.954,0.619 -1.495,0.619 z"
   id="path25189" />

				</g>

			</g>

			<g
   id="g25197"
   style="fill:#000000">
				<path
   style="fill:#000000"
   d="m 197.412,396.377 c 0,3.296 -2.046,5.971 -4.569,5.971 -2.523,0 -4.569,-2.675 -4.569,-5.971 0,-3.299 2.046,-5.974 4.569,-5.974 2.522,0 4.569,2.675 4.569,5.974 z"
   id="path25195" />

			</g>

			<g
   id="g25203"
   style="fill:#ff0000;fill-opacity:1">
				<g
   id="g25201"
   style="fill:#ff0000;fill-opacity:1">
					<path
   style="fill:#ff0000;fill-opacity:1"
   d="m 239.608,412.072 c 12.699,-5.978 17.002,8.327 9.714,14.461 -5.731,4.818 -18.368,8.243 -18.368,8.243 -0.678,-1.019 -7.15,-10.966 -8.221,-18.377 -1.36,-9.426 11.372,-17.24 16.875,-4.327 z"
   id="path25199" />

				</g>

			</g>

			<g
   id="g25207"
   style="fill:#000000">
				<path
   style="fill:#000000"
   d="m 182.938,384.684 c -0.03,0 -0.061,-0.001 -0.09,-0.003 -0.671,-0.05 -1.178,-0.634 -1.128,-1.305 0.214,-2.966 1.593,-5.816 3.787,-7.819 2.194,-2.004 5.132,-3.151 8.127,-3.063 0.674,0.013 1.21,0.57 1.196,1.243 -0.013,0.674 -0.561,1.277 -1.242,1.196 -2.343,-0.018 -4.698,0.84 -6.436,2.427 -1.737,1.585 -2.83,3.842 -2.999,6.191 -0.047,0.643 -0.582,1.133 -1.215,1.133 z"
   id="path25205" />

			</g>

			<g
   id="g25211"
   style="fill:#000000">
				<path
   style="fill:#000000"
   d="m 232.29,390.24 c -0.273,0 -0.547,-0.089 -0.774,-0.277 -3.31,-2.729 -6.708,-2.991 -9.819,-0.761 -0.549,0.393 -1.309,0.264 -1.702,-0.281 -0.392,-0.548 -0.266,-1.31 0.281,-1.702 3.997,-2.861 8.658,-2.546 12.792,0.861 0.52,0.43 0.594,1.198 0.165,1.717 -0.242,0.294 -0.59,0.443 -0.943,0.443 z"
   id="path25209" />

			</g>

		</g>
</g>
    </g>
  </g>
</svg>
