<?xml version="1.0" encoding="UTF-8" standalone="no"?>
<!-- Created with Inkscape (http://www.inkscape.org/) -->

<svg
   width="50mm"
   height="103.85051mm"
   viewBox="0 0 50 103.85051"
   version="1.1"
   id="svg2882"
   inkscape:version="1.2.2 (b0a8486541, 2022-12-01)"
   sodipodi:docname="Laugh.svg"
   inkscape:export-filename="Git_projects/esp-shooter/target/SVG/Laugh.png"
   inkscape:export-xdpi="96"
   inkscape:export-ydpi="96"
   xmlns:inkscape="http://www.inkscape.org/namespaces/inkscape"
   xmlns:sodipodi="http://sodipodi.sourceforge.net/DTD/sodipodi-0.dtd"
   xmlns="http://www.w3.org/2000/svg"
   xmlns:svg="http://www.w3.org/2000/svg">
  <sodipodi:namedview
     id="namedview2884"
     pagecolor="#ffffff"
     bordercolor="#000000"
     borderopacity="0.25"
     inkscape:showpageshadow="2"
     inkscape:pageopacity="0.0"
     inkscape:pagecheckerboard="0"
     inkscape:deskcolor="#d1d1d1"
     inkscape:document-units="mm"
     showgrid="false"
     inkscape:zoom="0.73687825"
     inkscape:cx="233.41712"
     inkscape:cy="365.05352"
     inkscape:window-width="1366"
     inkscape:window-height="699"
     inkscape:window-x="0"
     inkscape:window-y="0"
     inkscape:window-maximized="1"
     inkscape:current-layer="g2145" />
  <defs
     id="defs2879" />
  <g
     inkscape:label="Calque 1"
     inkscape:groupmode="layer"
     id="layer1"
     transform="translate(-64.396203,-97.646013)">
    <g
       id="g2145"
       transform="matrix(0.26458333,0,0,0.26458333,-112.30229,87.866749)">
      <rect
         style="fill:#ffffff;fill-opacity:1;stroke-width:2.41802"
         id="rect3702"
         width="16.440945"
         height="16.440945"
         x="753.87781"
         y="231.42148" />
      <path
         style="fill:#ffce00;fill-opacity:1;stroke-width:1.96356"
         d="m 847.30308,121.94004 c 0,46.93503 -38.04794,84.97905 -84.981,84.97905 -46.93307,0 -84.97512,-38.04402 -84.97512,-84.97905 0,-46.93306 38.04205,-84.97904 84.97512,-84.97904 46.93306,0 84.981,38.044017 84.981,84.97904 z"
         id="path2093" />
      <g
         id="g2109"
         transform="matrix(1.9635621,0,0,1.9635621,-643.50147,-35.614221)">
        <g
           id="g2097">
          <path
             style="fill:#000000"
             d="m 693.952,85.441 c -1.28,0 -2.165,1.23 -1.827,2.467 2.266,8.252 12.057,14.465 23.818,14.465 11.837,0 21.676,-6.292 23.86,-14.621 0.31,-1.176 -0.647,-2.311 -1.861,-2.311 z"
             id="path2095" />
        </g>
        <g
           id="g2107">
          <g
             id="g2101">
            <path
               style="fill:#ffffff"
               d="m 715.941,88.673 c 6.425,0 12.31,-1.214 16.981,-3.233 h -33.966 c 4.674,2.019 10.563,3.233 16.985,3.233 z"
               id="path2099" />
          </g>
          <g
             id="g2105">
            <path
               style="fill:#e55725"
               d="m 716.348,97.877 c -3.41,0 -6.479,1.319 -8.653,3.424 2.576,0.69 5.351,1.072 8.249,1.072 3.136,0 6.127,-0.454 8.875,-1.257 -2.162,-1.998 -5.157,-3.239 -8.471,-3.239 z"
               id="path2103" />
          </g>
        </g>
      </g>
      <g
         id="g2119"
         transform="matrix(1.9635621,0,0,1.9635621,-643.50232,-35.614221)">
        <g
           id="g2113">
          <path
             style="fill:#61c0eb"
             d="m 759.775,80.355 c 1.833,1.056 3.284,2.515 3.989,4.564 0.677,1.964 0.279,4.405 -1.37,5.665 -1.473,1.125 -3.615,1.067 -5.26,0.216 -2.682,-1.384 -4.461,-4.669 -5.539,-7.371 -0.882,-2.206 -2.112,-3.748 -3.895,-5.064 -0.408,-0.301 -0.18,-0.942 0.323,-0.895 3.728,0.365 8.387,0.946 11.752,2.885 z"
             id="path2111" />
        </g>
        <g
           id="g2117">
          <path
             style="fill:#61c0eb"
             d="m 672.139,80.355 c -1.834,1.056 -3.282,2.515 -3.989,4.564 -0.675,1.964 -0.277,4.405 1.372,5.665 1.47,1.125 3.614,1.067 5.258,0.216 2.683,-1.384 4.463,-4.669 5.541,-7.371 0.881,-2.206 2.109,-3.748 3.893,-5.064 0.407,-0.301 0.181,-0.942 -0.321,-0.895 -3.728,0.365 -8.388,0.946 -11.754,2.885 z"
             id="path2115" />
        </g>
      </g>
      <g
         id="g2133"
         transform="matrix(1.9635621,0,0,1.9635621,-643.50101,-35.614221)"
         style="fill:#000000">
        <g
           id="g2125"
           style="fill:#000000">
          <g
             id="g2123"
             style="fill:#000000">
            <path
               style="fill:#000000"
               d="m 744.566,76.956 c 0.448,0.276 1.039,-0.039 1.042,-0.567 0,-0.003 0,-0.008 0,-0.013 0,-3.158 -2.562,-5.717 -5.72,-5.717 -3.157,0 -5.715,2.559 -5.715,5.717 0,0.003 0,0.009 0,0.013 0,0.528 0.591,0.843 1.039,0.567 1.36,-0.84 2.961,-1.328 4.676,-1.328 1.716,0.001 3.319,0.488 4.678,1.328 z"
               id="path2121" />
          </g>
        </g>
        <g
           id="g2131"
           style="fill:#000000">
          <g
             id="g2129"
             style="fill:#000000">
            <path
               style="fill:#000000"
               d="m 696.702,76.956 c 0.448,0.276 1.039,-0.039 1.041,-0.567 0,-0.003 0,-0.008 0,-0.013 0,-3.158 -2.561,-5.717 -5.719,-5.717 -3.156,0 -5.718,2.559 -5.718,5.717 0,0.003 0,0.009 0,0.013 0.002,0.528 0.592,0.843 1.041,0.567 1.361,-0.84 2.962,-1.328 4.677,-1.328 1.717,0.001 3.317,0.488 4.678,1.328 z"
               id="path2127" />
          </g>
        </g>
      </g>
      <g
         id="g2143"
         transform="matrix(1.9635621,0,0,1.9635621,-643.49885,-35.614221)"
         style="fill:#000000">
        <g
           id="g2137"
           style="fill:#000000">
          <path
             style="fill:#000000"
             d="m 688.081,67.165 c -0.103,0 -0.206,-0.011 -0.309,-0.035 -0.76,-0.168 -1.241,-0.922 -1.073,-1.683 0.538,-2.413 2.059,-4.278 4.284,-5.254 2.223,-0.976 4.873,-0.899 6.758,0.196 0.675,0.391 0.905,1.254 0.513,1.929 -0.392,0.672 -1.254,0.902 -1.929,0.51 -1.113,-0.645 -2.804,-0.667 -4.208,-0.052 -0.977,0.429 -2.232,1.346 -2.66,3.282 -0.147,0.658 -0.729,1.107 -1.376,1.107 z"
             id="path2135" />
        </g>
        <g
           id="g2141"
           style="fill:#000000">
          <path
             style="fill:#000000"
             d="m 743.834,67.165 c -0.646,0 -1.229,-0.449 -1.374,-1.106 -0.431,-1.936 -1.685,-2.852 -2.662,-3.282 -1.404,-0.613 -3.095,-0.592 -4.207,0.052 -0.678,0.394 -1.537,0.163 -1.929,-0.51 -0.392,-0.674 -0.164,-1.538 0.51,-1.929 1.884,-1.095 4.534,-1.172 6.756,-0.196 2.229,0.976 3.75,2.842 4.285,5.254 0.167,0.761 -0.311,1.514 -1.071,1.683 -0.105,0.022 -0.206,0.034 -0.308,0.034 z"
             id="path2139" />
        </g>
      </g>
      <path
         id="rect234"
         style="fill:#ffce00;fill-opacity:1;stroke-width:1.27769"
         d="m 739.55339,202.31911 h 45.08972 v 226.77166 c -22.31809,-15.91608 -22.31809,-15.7569 -45.08972,0 z"
         sodipodi:nodetypes="ccccc" />
      <rect
         style="fill:#ffffff;stroke:none;stroke-width:3.77953"
         id="rect1162"
         width="16.705513"
         height="16.705513"
         x="753.74548"
         y="326.7793" />
    </g>
  </g>
</svg>
