<?xml version="1.0" encoding="UTF-8" standalone="no"?>
<!-- Created with Inkscape (http://www.inkscape.org/) -->

<svg
   width="50mm"
   height="103.85051mm"
   viewBox="0 0 50 103.85051"
   version="1.1"
   id="svg2882"
   inkscape:version="1.2.2 (b0a8486541, 2022-12-01)"
   sodipodi:docname="Poop.svg"
   inkscape:export-filename="Git_projects/esp-shooter/target/SVG/Laugh.png"
   inkscape:export-xdpi="96"
   inkscape:export-ydpi="96"
   xmlns:inkscape="http://www.inkscape.org/namespaces/inkscape"
   xmlns:sodipodi="http://sodipodi.sourceforge.net/DTD/sodipodi-0.dtd"
   xmlns="http://www.w3.org/2000/svg"
   xmlns:svg="http://www.w3.org/2000/svg">
  <sodipodi:namedview
     id="namedview2884"
     pagecolor="#ffffff"
     bordercolor="#000000"
     borderopacity="0.25"
     inkscape:showpageshadow="2"
     inkscape:pageopacity="0.0"
     inkscape:pagecheckerboard="0"
     inkscape:deskcolor="#d1d1d1"
     inkscape:document-units="mm"
     showgrid="false"
     inkscape:zoom="0.79479068"
     inkscape:cx="60.39326"
     inkscape:cy="157.27411"
     inkscape:window-width="1366"
     inkscape:window-height="699"
     inkscape:window-x="0"
     inkscape:window-y="0"
     inkscape:window-maximized="1"
     inkscape:current-layer="g2145"
     showguides="false">
    <sodipodi:guide
       position="28.613446,105.27456"
       orientation="0,-1"
       id="guide35170"
       inkscape:locked="false" />
  </sodipodi:namedview>
  <defs
     id="defs2879" />
  <g
     inkscape:label="Calque 1"
     inkscape:groupmode="layer"
     id="layer1"
     transform="translate(-64.396203,-97.646013)">
    <g
       id="g2145"
       transform="matrix(0.26458333,0,0,0.26458333,-112.30229,87.866749)">
      <path
         id="rect234"
         style="fill:#9d432c;fill-opacity:1;stroke-width:1.27769"
         d="m 739.77918,202.69521 h 45.08972 v 226.77166 c -22.31809,-15.91608 -22.31809,-15.7569 -45.08972,0 z"
         sodipodi:nodetypes="ccccc" />
      <rect
         style="fill:#ffffff;stroke:none;stroke-width:3.77953"
         id="rect1162"
         width="16.705513"
         height="16.705513"
         x="753.97137"
         y="327.1554" />
      <path
         d="m 844.37587,142.47198 a 23.455601,23.455601 0 0 0 -10.46258,-10.95581 33.819529,33.819529 0 0 0 -8.96792,-3.93094 c 2.28682,-8.37006 -0.95658,-15.03621 -5.51527,-20.01341 -6.74089,-7.29392 -13.75082,-8.355117 -13.75082,-8.355117 2.42134,-4.588584 3.15372,-9.87966 2.03273,-14.946537 -1.15088,-5.51527 -4.60353,-10.253324 -9.506,-13.033383 -4.63342,-2.735211 -10.343,-4.080405 -16.20204,-5.186448 -2.80995,-0.50818 -14.66256,-2.167246 -19.57996,-8.967918 -3.96084,-5.515276 -4.08041,-15.439772 -5.15656,-18.414133 -1.07615,-2.974366 -5.05193,-1.718851 -9.31169,1.135937 -4.9772,3.377912 -15.29031,14.034794 -19.26609,24.751462 a 36.76848,36.76848 0 0 0 -1.91316,20.760741 c -3.19856,0.523129 -6.32239,1.449816 -9.2818,2.76511 -0.23914,0 -0.47829,0.149465 -0.73238,0.254093 -4.48396,1.853367 -14.09458,10.462575 -14.94653,23.690263 -0.31388,4.67826 0.28398,9.35653 1.74874,13.8106 -3.27329,0.85195 -6.42701,2.13735 -9.35653,3.84126 -3.42276,1.46476 -6.54659,3.55727 -9.19212,6.17292 -2.91458,3.60211 -5.03699,7.7722 -6.20282,12.25615 a 41.243474,41.243474 0 0 0 2.98931,29.54931 c 2.69038,5.18645 6.0683,9.96934 10.07397,14.2291 12.77929,13.13801 34.84037,18.10026 52.31288,20.92515 21.20914,3.49749 43.41969,2.27187 63.26869,-5.97861 29.7735,-12.28605 37.69517,-32.04538 38.861,-37.62043 2.58575,-12.33089 -0.58292,-23.94436 -1.94305,-26.73936 z"
         fill="#885742"
         id="path35981"
         style="stroke-width:1.49465;fill:#9d432c;fill-opacity:1" />
      <path
         d="m 797.38396,169.01703 c -2.34661,1.19572 -4.73806,2.27187 -7.14445,3.22845 -1.61423,0.6427 -3.2434,1.22562 -4.88752,1.74875 -1.64412,0.53808 -3.30318,1.00141 -4.97719,1.49465 -3.34803,0.83701 -6.75584,1.44981 -10.19354,1.80853 -2.6007,0.28399 -5.23129,0.41851 -7.84694,0.41851 -6.9053,0 -13.78071,-0.97153 -20.43191,-2.85479 l -2.1822,-0.65765 a 82.385311,82.385311 0 0 1 -10.68677,-4.24481 l -2.07757,-1.03132 a 33.961521,33.961521 0 0 0 19.012,22.88315 c 5.12666,2.3765 10.71666,3.58717 16.36645,3.55728 5.70958,0.0448 11.35937,-1.121 16.57571,-3.45266 a 32.685086,32.685086 0 0 0 18.80275,-23.07745 z"
         fill="#35220b"
         id="path35983"
         style="stroke-width:1.49465" />
      <path
         d="m 794.00604,164.69748 c -10.46258,1.83843 -21.05967,2.72027 -31.67172,2.64554 -10.61204,0.0598 -21.20913,-0.82206 -31.67171,-2.64554 a 3.228452,3.228452 0 0 0 -3.78147,3.79642 v 0.37367 a 77.091247,77.091247 0 0 0 35.45318,8.77361 c 2.61565,0 5.24624,-0.13451 7.84694,-0.4185 3.4377,-0.35871 6.84551,-0.97152 10.19354,-1.80853 1.67401,-0.41851 3.33307,-0.88184 4.97719,-1.49466 1.64412,-0.61281 3.27329,-1.10604 4.88752,-1.74874 2.42133,-1.00142 4.79784,-2.07757 7.14445,-3.22845 l 0.32882,-0.17936 0.0897,-0.40355 c 0.25409,-1.77864 -0.98648,-3.42276 -2.78006,-3.67686 a 3.3181311,3.3181311 0 0 0 -1.01636,0.0149 z"
         fill="#ffffff"
         id="path35985"
         style="stroke-width:1.49465" />
      <g
         id="g35995"
         transform="matrix(1.4946537,0,0,1.4946537,666.67649,30.178647)">
        <circle
           cx="80.129997"
           cy="69.489998"
           r="12.4"
           fill="#ffffff"
           id="circle35987" />
        <ellipse
           cx="80.129997"
           cy="69.489998"
           rx="5.73"
           ry="5.8200002"
           fill="#35220b"
           id="ellipse35989" />
        <circle
           cx="47.869999"
           cy="69.489998"
           r="12.4"
           fill="#ffffff"
           id="circle35991" />
        <ellipse
           cx="47.869999"
           cy="69.489998"
           rx="5.73"
           ry="5.8200002"
           fill="#35220b"
           id="ellipse35993" />
      </g>
    </g>
  </g>
</svg>
