<?xml version="1.0" encoding="UTF-8" standalone="no"?>
<!-- Created with Inkscape (http://www.inkscape.org/) -->

<svg
   width="50mm"
   height="103.85051mm"
   viewBox="0 0 50 103.85051"
   version="1.1"
   id="svg2882"
   inkscape:version="1.2.2 (b0a8486541, 2022-12-01)"
   sodipodi:docname="Thug.svg"
   inkscape:export-filename="Git_projects/esp-shooter/target/SVG/Laugh.png"
   inkscape:export-xdpi="96"
   inkscape:export-ydpi="96"
   xmlns:inkscape="http://www.inkscape.org/namespaces/inkscape"
   xmlns:sodipodi="http://sodipodi.sourceforge.net/DTD/sodipodi-0.dtd"
   xmlns="http://www.w3.org/2000/svg"
   xmlns:svg="http://www.w3.org/2000/svg">
  <sodipodi:namedview
     id="namedview2884"
     pagecolor="#ffffff"
     bordercolor="#000000"
     borderopacity="0.25"
     inkscape:showpageshadow="2"
     inkscape:pageopacity="0.0"
     inkscape:pagecheckerboard="0"
     inkscape:deskcolor="#d1d1d1"
     inkscape:document-units="mm"
     showgrid="false"
     inkscape:zoom="0.6848877"
     inkscape:cx="73.00467"
     inkscape:cy="54.023456"
     inkscape:window-width="1366"
     inkscape:window-height="699"
     inkscape:window-x="0"
     inkscape:window-y="0"
     inkscape:window-maximized="1"
     inkscape:current-layer="g2145" />
  <defs
     id="defs2879" />
  <g
     inkscape:label="Calque 1"
     inkscape:groupmode="layer"
     id="layer1"
     transform="translate(-64.396203,-97.646013)">
    <g
       id="g2145"
       transform="matrix(0.26458333,0,0,0.26458333,-112.30229,87.866749)">
      <path
         id="rect234"
         style="fill:#ffce00;fill-opacity:1;stroke-width:1.27769"
         d="m 739.77918,202.69521 h 45.08972 v 226.77166 c -22.31809,-15.91608 -22.31809,-15.7569 -45.08972,0 z"
         sodipodi:nodetypes="ccccc" />
      <rect
         style="fill:#ffffff;stroke:none;stroke-width:3.77953"
         id="rect1162"
         width="16.705513"
         height="16.705513"
         x="753.97137"
         y="327.1554" />
      <g
         id="g25790"
         transform="matrix(1.9648954,0,0,1.9649407,604.12502,-967.33253)">
		
			<ellipse
   transform="matrix(0.9996,-0.0278,0.0278,0.9996,-15.3772,2.4519)"
   style="fill:#ffce00"
   cx="80.511002"
   cy="554.37402"
   rx="43.278"
   ry="43.277"
   id="ellipse25768" />

		<g
   id="g25784">
			<g
   id="g25782">
				<g
   id="g25772">
					<path
   style="fill:#261f11"
   d="m 88.07,536.481 c -2.765,0.921 -6.187,1.071 -7.554,1.097 -1.364,-0.025 -4.803,-0.176 -7.564,-1.097 -5.264,-1.754 -13.73,-2.861 -20.186,-2.709 -4.779,0.117 -9.728,0.76 -12.811,1.379 -1.368,0.276 -2.237,1.619 -1.922,2.977 l 0.329,1.414 c 0.193,0.824 0.83,1.432 1.627,1.715 0.411,0.147 0.807,0.415 0.985,0.897 0.553,1.487 3.548,10.324 5.17,13.589 1.329,2.673 4.928,4.965 13.295,4.997 11.907,0.048 16.032,-7.826 17.925,-12.913 0.198,-0.531 0.499,-1.549 0.77,-2.536 0.389,-1.413 1.246,-2.804 1.631,-3.004 0.225,-0.114 0.493,-0.211 0.749,-0.211 0.266,0 0.53,0.097 0.759,0.211 0.38,0.2 1.219,1.591 1.614,3.004 0.27,0.987 0.566,2.005 0.766,2.536 1.892,5.087 6.017,12.961 17.923,12.913 8.368,-0.032 11.971,-2.324 13.296,-4.997 1.621,-3.265 4.613,-12.102 5.174,-13.589 0.178,-0.482 0.572,-0.75 0.984,-0.897 0.797,-0.283 1.433,-0.891 1.626,-1.715 l 0.33,-1.415 c 0.314,-1.358 -0.557,-2.7 -1.924,-2.977 -3.081,-0.619 -8.032,-1.262 -12.809,-1.379 -6.459,-0.151 -14.922,0.956 -20.183,2.71 z"
   id="path25770" />

				</g>

				<g
   id="g25776">
					<path
   style="fill:#483d23"
   d="m 86.097,544.372 c 0.25,5.767 5.867,11.312 11.123,12.584 7.728,1.872 13.54,0.205 16.836,-6.898 0.993,-2.143 3.117,-6.812 2.98,-9.303 -0.237,-4.326 -5.731,-3.566 -9.237,-3.654 -0.375,-0.008 -22.046,-0.618 -21.702,7.271 z"
   id="path25774" />

				</g>

				<g
   id="g25780">
					<path
   style="fill:#483d23"
   d="m 75.142,544.372 c -0.25,5.767 -5.866,11.312 -11.124,12.584 -7.727,1.872 -13.54,0.205 -16.835,-6.898 -0.992,-2.143 -3.117,-6.812 -2.981,-9.303 0.237,-4.326 5.731,-3.566 9.237,-3.654 0.375,-0.008 22.046,-0.618 21.703,7.271 z"
   id="path25778" />

				</g>

			</g>

		</g>

		<g
   id="g25788">
			<path
   style="fill:#562912"
   d="m 89.742,576.514 c -1.147,0 -2.318,-0.085 -3.507,-0.263 -1.156,-0.175 -1.952,-1.253 -1.779,-2.409 0.174,-1.153 1.244,-1.949 2.408,-1.778 6.696,1.001 12.649,-1.528 15.158,-6.456 0.531,-1.041 1.806,-1.454 2.847,-0.924 1.042,0.53 1.455,1.806 0.925,2.847 -2.885,5.66 -8.974,8.983 -16.052,8.983 z"
   id="path25786" />

		</g>

	</g>
    </g>
  </g>
</svg>
